<svg width="51" height="51" viewBox="0 0 51 51" fill="none" xmlns="http://www.w3.org/2000/svg">
<path d="M36.4886 51H14.5114C6.52852 51 0 44.5038 0 36.4886V14.5114C0 6.52852 6.52852 0 14.5114 0H36.4886C44.5038 0 51 6.52852 51 14.5114V36.4886C51 44.5038 44.5038 51 36.4886 51ZM14.5114 4.36312C8.92015 4.36312 4.36312 8.92015 4.36312 14.5114V36.4886C4.36312 42.0798 8.92015 46.6369 14.5114 46.6369H36.4886C42.0798 46.6369 46.6369 42.0798 46.6369 36.4886V14.5114C46.6369 8.92015 42.0798 4.36312 36.4886 4.36312H14.5114Z" fill="black"/>
<path d="M25.4999 38.5569C18.2927 38.5569 12.4429 32.7071 12.4429 25.4999C12.4429 18.2927 18.2927 12.4429 25.4999 12.4429C32.7071 12.4429 38.5569 18.2927 38.5569 25.4999C38.5569 32.7071 32.7071 38.5569 25.4999 38.5569ZM25.4999 16.806C20.7166 16.806 16.806 20.7166 16.806 25.4999C16.806 30.2832 20.7166 34.1938 25.4999 34.1938C30.2832 34.1938 34.1938 30.2832 34.1938 25.4999C34.1938 20.7166 30.2832 16.806 25.4999 16.806Z" fill="black"/>
<path d="M42.2739 11.6994C42.2739 13.4447 40.8841 14.8344 39.1389 14.8344C37.3936 14.8344 36.0039 13.4447 36.0039 11.6994C36.0039 9.95419 37.3936 8.56445 39.1389 8.56445C40.8518 8.56445 42.2739 9.95419 42.2739 11.6994Z" fill="black"/>
</svg>
