<svg width="65" height="37" viewBox="0 0 65 37" fill="none" xmlns="http://www.w3.org/2000/svg">
<path d="M64.6366 32.521C64.5327 32.3697 64.4808 32.2185 64.4289 32.1176C63.2867 30.1513 61.1581 27.7311 57.9912 24.8571L57.9393 24.8067L57.8874 24.7563L57.8355 24.7059H57.7835C56.3299 23.3445 55.4473 22.4874 55.0319 22.0336C54.357 21.1765 54.1494 20.2689 54.5647 19.3613C54.8243 18.7059 55.8626 17.2437 57.6278 15.0756C58.5623 13.916 59.2891 13.0084 59.8083 12.3025C63.7021 7.26051 65.4153 4.03362 64.8962 2.62185L64.6885 2.31933C64.5327 2.11765 64.2212 1.91597 63.6502 1.76471C63.0791 1.61345 62.3522 1.56303 61.4697 1.66387L51.7612 1.71429C51.6054 1.66387 51.3978 1.66387 51.0863 1.71429C50.7748 1.76471 50.619 1.81513 50.619 1.81513L50.4633 1.91597L50.3075 2.01681C50.2037 2.06723 50.0479 2.21849 49.9441 2.36975C49.7883 2.52101 49.6845 2.72269 49.6326 2.92437C48.5942 5.59664 47.3482 8.01681 45.9984 10.3361C45.1677 11.6975 44.389 12.8571 43.7141 13.8655C43.0391 14.874 42.4161 15.5798 41.9489 16.084C41.4816 16.5378 41.0663 16.9412 40.651 17.1933C40.2875 17.4958 39.976 17.5966 39.7684 17.5462C39.5607 17.4958 39.353 17.4454 39.1973 17.395C38.8858 17.1933 38.6262 16.9412 38.4185 16.5882C38.2109 16.2353 38.107 15.8319 38.0032 15.3277C37.9513 14.8235 37.8994 14.3697 37.8994 14.0168C37.8994 13.6639 37.8994 13.1092 37.8994 12.4538C37.8994 11.7983 37.9513 11.2941 37.9513 11.0924C37.9513 10.2353 37.9513 9.37815 38.0032 8.36975C38.0551 7.41177 38.0551 6.60504 38.107 6.05042C38.107 5.4958 38.1589 4.89076 38.1589 4.2353C38.1589 3.57983 38.107 3.12605 38.0551 2.72269C38.0032 2.36975 37.8474 2.01681 37.6917 1.66387C37.5359 1.31093 37.2764 1.05883 37.0168 0.857145C36.7053 0.655464 36.3419 0.504204 35.8746 0.403364C34.6805 0.151263 33.1749 2.27988e-06 31.3059 2.27988e-06C27.0487 -0.0504179 24.401 0.201683 23.155 0.806725C22.6877 1.05883 22.2724 1.36135 21.857 1.81513C21.4417 2.31933 21.3898 2.57143 21.7013 2.62185C23.0511 2.82353 24.0375 3.27731 24.5567 4.03362L24.7644 4.43698C24.9201 4.7395 25.0759 5.2437 25.2316 5.94958C25.3874 6.65546 25.4912 7.46219 25.5431 8.36975C25.647 9.9832 25.647 11.3445 25.5431 12.4538C25.4393 13.6134 25.3355 14.4706 25.2316 15.1261C25.1278 15.7815 24.972 16.2857 24.7644 16.6891C24.5567 17.0924 24.401 17.3445 24.349 17.395C24.2971 17.4958 24.2452 17.5462 24.1933 17.5462C23.8818 17.6471 23.5703 17.6975 23.2588 17.6975C22.9473 17.6975 22.5839 17.5462 22.1166 17.2437C21.6494 16.9412 21.1821 16.5378 20.7149 15.9832C20.2476 15.4286 19.6765 14.7227 19.0535 13.7143C18.4305 12.7563 17.8075 11.5966 17.1845 10.2857L16.6653 9.32773C16.3019 8.72269 15.8866 7.81513 15.2636 6.65546C14.6925 5.4958 14.1733 4.33614 13.7061 3.27731C13.5503 2.82353 13.2388 2.47059 12.8754 2.21849L12.7196 2.11765C12.6158 2.01681 12.4081 1.91597 12.2005 1.81513C11.9409 1.71429 11.6813 1.66387 11.4217 1.61345L2.18051 1.66387C1.24601 1.66387 0.571086 1.86555 0.259585 2.26891L0.103834 2.47059C0.0519169 2.57143 0 2.77311 0 2.97479C0 3.22689 0.0519169 3.52941 0.207668 3.88235C1.55751 6.95798 3.01118 9.93278 4.62061 12.8067C6.23003 15.6807 7.57987 18 8.77396 19.7647C9.96805 21.5294 11.1621 23.1933 12.3562 24.7059C13.5503 26.2689 14.381 27.2773 14.7963 27.6807C15.2117 28.1345 15.5232 28.437 15.7308 28.6891L16.5615 29.4958C17.0807 30 17.9113 30.6555 18.9497 31.3613C19.988 32.1176 21.1821 32.8235 22.4281 33.5294C23.726 34.2353 25.1797 34.8403 26.893 35.2941C28.6062 35.7479 30.2157 35.9496 31.8251 35.8487H35.7189C36.4976 35.7983 37.1206 35.5462 37.5359 35.1429L37.6917 34.9916C37.7955 34.8403 37.8474 34.6387 37.9513 34.3866C38.0551 34.1345 38.0551 33.8319 38.0551 33.479C38.0551 32.521 38.107 31.6639 38.2628 30.9076C38.4185 30.1513 38.6262 29.5966 38.8339 29.1933C39.0415 28.7899 39.3011 28.4874 39.5607 28.2353C39.8203 27.9832 40.028 27.8319 40.1318 27.7815C40.2356 27.7311 40.3395 27.6807 40.3914 27.6807C40.9105 27.5294 41.5855 27.6807 42.3123 28.1849C43.0391 28.6891 43.7141 29.3445 44.389 30.1008C45.012 30.8571 45.7907 31.7143 46.7252 32.6723C47.6078 33.6303 48.4385 34.3361 49.1134 34.7899L49.7883 35.1933C50.2556 35.4454 50.8267 35.6975 51.5535 35.8992C52.2804 36.1008 52.9034 36.1513 53.4225 36.0504L62.0927 35.8992C62.9233 35.8992 63.5982 35.7479 64.0655 35.4958C64.5327 35.2437 64.8442 34.9412 64.8962 34.5882C65 34.2353 65 33.8824 64.8962 33.479C64.7923 32.9748 64.7404 32.6723 64.6366 32.521Z" fill="white"/>
</svg>
